<svg xmlns="http://www.w3.org/2000/svg" xmlns:xlink="http://www.w3.org/1999/xlink" version="1.1" id="Layer_1" x="0px" y="0px" enable-background="new 0 0 576 400" xml:space="preserve" viewBox="127.44 34.96 335.61 333.08">
<path fill="#000000" opacity="1.000000" stroke="none" d=" M237.272736,357.957153   C222.729584,352.342529 209.243866,345.467865 197.065186,336.389282   C173.160156,318.569214 154.552368,296.435730 142.105103,269.063385   C129.272690,240.844147 124.854721,211.326721 128.873566,180.947189   C135.593964,130.145981 160.475937,90.018433 203.458023,61.762539   C221.535049,49.878918 241.351746,42.059551 262.888702,38.259693   C280.948792,35.073257 299.033112,33.754017 317.048157,36.301250   C336.148224,39.001907 354.786774,44.015285 371.924011,53.497662   C388.348145,62.585464 403.504639,73.425858 416.399292,87.037239   C434.082092,105.702858 448.075073,126.793236 455.801727,151.615845   C463.545135,176.492203 464.982025,201.671646 460.606079,227.415878   C452.844055,273.080872 429.462524,308.938385 392.808868,336.377594   C379.762939,346.143860 365.430359,353.901672 349.617310,358.726624   C323.375916,366.733643 296.925049,370.770752 269.484344,365.968903   C258.643677,364.071869 248.104156,361.324341 237.272736,357.957153  M375.386139,72.149292   C360.689117,63.181236 344.884796,57.499344 328.006317,53.723598   C307.143219,49.056484 286.375427,48.647259 265.672974,52.515446   C249.220413,55.589542 233.439758,61.217442 218.815308,69.890739   C171.884491,97.723923 146.806610,139.191376 142.366592,193.089813   C140.326233,217.858124 145.594162,241.692032 156.090698,264.271912   C172.661026,299.917664 199.052734,325.677643 234.996902,341.352966   C269.509705,356.404083 305.136139,356.072052 340.590698,345.815247   C369.367157,337.490356 393.473206,321.225647 412.846619,298.056854   C436.565643,269.691132 448.109741,236.883545 448.498657,200.226395   C448.648590,186.096649 446.151917,172.071503 441.981567,158.439957   C430.699524,121.562790 408.761749,92.900604 375.386139,72.149292  z"/>
<path fill="#000000" opacity="1.000000" stroke="none" d=" M203.188751,195.398560   C205.734818,189.047668 210.297485,184.860184 215.419708,181.377960   C222.696991,176.430603 225.462875,169.669235 226.017639,161.056900   C226.672775,150.886383 225.562119,140.808746 225.662247,130.687729   C225.685745,128.312820 224.994247,126.101410 224.116119,123.917000   C222.493790,119.881348 223.366699,118.111748 227.701111,118.375252   C233.886627,118.751289 240.030869,117.715439 246.164139,118.238884   C250.190765,118.582520 254.149506,117.927559 258.137451,118.078415   C261.985931,118.223991 263.742035,119.727303 263.124573,124.108177   C261.046295,138.854019 262.585632,153.710922 262.238922,168.516342   C262.185059,170.817093 263.381348,171.842117 265.624390,171.830124   C269.289612,171.810516 272.972595,172.044998 276.615692,171.759216   C280.834442,171.428253 283.423004,167.905853 283.883362,163.037704   C284.775909,153.598785 284.247375,144.059967 286.090912,134.684265   C288.127472,124.326958 295.244751,116.284927 304.390228,114.328575   C314.587708,112.147186 326.268250,116.589241 331.632111,124.970604   C337.562958,134.238022 335.971619,143.762527 331.695709,153.025894   C329.556091,157.661118 326.587799,161.913803 323.485962,167.206940   C331.608276,168.435684 339.191193,169.641083 346.792694,170.715134   C353.383820,171.646454 359.864960,172.761215 366.150085,175.225128   C379.041748,180.278961 386.760132,198.578903 373.297455,210.594101   C369.542053,213.945694 365.727020,217.083420 361.172516,219.276581   C359.280365,220.187729 357.196381,220.893600 355.854034,223.086472   C359.740387,225.940445 364.236511,227.240814 368.554260,228.674622   C389.191010,235.527542 389.502625,261.341705 379.608704,272.531616   C372.954620,280.057251 363.763092,284.366882 353.785889,285.128601   C332.202820,286.776306 310.558075,285.506134 288.937347,285.384033   C284.600220,285.359558 283.619324,283.377289 283.630981,279.525848   C283.725281,248.361160 283.701782,217.196091 283.703003,186.031143   C283.703247,179.298096 283.682404,179.298096 277.135315,179.276443   C262.177612,179.226974 262.255249,179.227631 262.128845,194.045303   C262.069580,200.994080 262.329742,207.862946 260.402557,214.827728   C257.501038,225.313705 251.645020,232.359894 241.052673,234.805618   C229.485657,237.476395 218.164154,237.648972 208.878952,228.446426   C200.184799,219.829651 197.958069,207.108780 203.188751,195.398560  M333.585632,228.875793   C332.455780,228.608276 331.334625,228.294540 330.194702,228.080765   C323.065887,226.743866 321.406372,228.056610 321.353699,235.159897   C321.300720,242.301498 321.228058,249.444580 321.317047,256.585114   C321.399719,263.219604 320.943848,269.867188 321.810394,276.488892   C322.125336,278.895569 322.972839,280.417969 325.678253,280.807098   C334.722412,282.107971 343.392609,277.576874 346.900482,269.205109   C348.038116,266.490112 348.419739,263.463043 349.201416,260.593475   C352.517426,248.420349 345.475739,233.498154 333.585632,228.875793  M321.422455,207.075394   C321.619049,208.886475 321.741028,210.709763 322.035126,212.504883   C322.285919,214.035751 323.297150,214.976639 324.866943,214.516327   C331.342163,212.617584 337.557251,209.555389 341.288879,204.071304   C347.979614,194.238525 341.468842,179.811966 329.898956,177.363403   C323.214294,175.948685 321.458832,177.299332 321.381836,184.246429   C321.300964,191.548248 321.391632,198.851974 321.422455,207.075394  M219.941467,186.457642   C215.435791,189.697861 211.422958,193.382843 209.000473,198.515854   C204.193314,208.701752 207.237061,220.738312 215.636261,224.732117   C220.857758,227.214905 224.021042,225.773865 224.737457,220.057404   C226.205032,208.347092 225.973007,196.598480 225.061722,184.390381   C223.288071,185.106888 221.937256,185.652573 219.941467,186.457642  M321.506775,127.866913   C321.506775,137.072723 321.506775,146.278534 321.506775,155.743454   C327.935516,149.295731 330.186432,136.287842 326.202423,129.290634   C325.329407,127.757355 324.301727,125.934715 321.506775,127.866913  z"/>
</svg>